<svg width="205" height="94" viewBox="0 0 205 94" fill="none" xmlns="http://www.w3.org/2000/svg">
<path d="M19.95 73C15.6833 73 12.6167 72.0667 10.75 70.2C8.91667 68.3333 8 65.6333 8 62.1V38H15.05V62.1C15.05 63.9333 15.45 65.3 16.25 66.2C17.05 67.0667 18.2833 67.5 19.95 67.5H31.15V73H19.95ZM51.2426 73.65C46.6759 73.65 43.2259 72.6833 40.8926 70.75C38.5592 68.7833 37.3926 66.0667 37.3926 62.6V38H44.4426V62.6C44.4426 66.3 46.7092 68.15 51.2426 68.15C55.7759 68.15 58.0426 66.3 58.0426 62.6V38H65.0926V62.6C65.0926 66.0667 63.9259 68.7833 61.5926 70.75C59.2592 72.6833 55.8092 73.65 51.2426 73.65ZM89.634 55.95L100.234 73H92.234L85.084 61.45L77.934 73H70.084L81.184 55.15L70.584 38H78.534L85.734 49.65L92.934 38H100.734L89.634 55.95ZM119.598 73.65C115.031 73.65 111.581 72.6833 109.248 70.75C106.915 68.7833 105.748 66.0667 105.748 62.6V38H112.798V62.6C112.798 66.3 115.065 68.15 119.598 68.15C124.131 68.15 126.398 66.3 126.398 62.6V38H133.448V62.6C133.448 66.0667 132.281 68.7833 129.948 70.75C127.615 72.6833 124.165 73.65 119.598 73.65ZM171.039 73H163.589L161.289 65.25C160.823 63.65 160.356 62.4167 159.889 61.55C159.423 60.65 158.789 59.9667 157.989 59.5C157.189 59.0333 156.123 58.8 154.789 58.8H149.739V73H142.689V38H156.839C161.106 38 164.256 38.85 166.289 40.55C168.323 42.2167 169.339 44.8333 169.339 48.4C169.339 50.7 168.723 52.55 167.489 53.95C166.289 55.35 164.623 56.25 162.489 56.65C164.189 57.2167 165.473 58.2 166.339 59.6C167.206 61 168.006 62.9 168.739 65.3L171.039 73ZM157.039 53.3C158.573 53.3 159.823 52.9 160.789 52.1C161.789 51.2667 162.289 50.0333 162.289 48.4C162.289 46.7667 161.789 45.55 160.789 44.75C159.823 43.9167 158.573 43.5 157.039 43.5H149.739V53.3H157.039ZM185.533 58L174.033 38H181.883L189.233 51.55L196.433 38H204.333L192.583 58V73H185.533V58Z" fill="#131310"/>
<path d="M99.1957 86.308C99.1957 86.4573 99.0231 86.532 98.6777 86.532C98.6217 86.532 98.5284 86.476 98.3977 86.364L97.9217 85.916L97.2777 85.356C97.0537 85.1507 96.8204 84.9593 96.5777 84.782C95.9057 84.3993 95.4484 84.194 95.2057 84.166C94.3844 84.166 93.8244 84.376 93.5257 84.796C93.4137 84.9547 93.3577 85.132 93.3577 85.328C93.3577 85.5147 93.4091 85.692 93.5117 85.86C93.6144 86.0187 93.7917 86.1913 94.0437 86.378C94.5851 86.7793 95.4671 87.19 96.6897 87.61C96.7084 87.5913 96.7457 87.54 96.8017 87.456L96.9837 87.204C97.1517 86.98 97.2684 86.868 97.3337 86.868C97.3991 86.868 97.4504 86.896 97.4877 86.952C97.5344 86.9987 97.5577 87.0453 97.5577 87.092C97.5577 87.1387 97.5437 87.19 97.5157 87.246C97.4971 87.302 97.4691 87.3627 97.4317 87.428C97.3291 87.6053 97.2731 87.7173 97.2637 87.764C97.9451 88.24 98.4071 88.6553 98.6497 89.01C98.9391 89.43 99.0837 89.962 99.0837 90.606C99.0837 91.418 98.7477 92.1087 98.0757 92.678C97.3851 93.266 96.5124 93.56 95.4577 93.56C94.9351 93.56 94.4171 93.4713 93.9037 93.294C93.3997 93.126 92.9891 92.8367 92.6717 92.426L92.6437 92.412C92.6251 92.412 92.5971 92.426 92.5597 92.454C92.5224 92.4727 92.5037 92.4913 92.5037 92.51L92.3077 93.462C92.2984 93.5273 92.2424 93.56 92.1397 93.56C92.0464 93.56 91.9811 93.546 91.9437 93.518C91.9157 93.4993 91.8784 93.4527 91.8317 93.378L91.8177 92.818C91.8177 92.37 91.8551 91.7167 91.9297 90.858C91.9764 90.7273 92.0791 90.662 92.2377 90.662C92.3964 90.662 92.5317 90.7367 92.6437 90.886C92.7557 91.026 92.8631 91.194 92.9657 91.39L93.2737 91.978C93.3764 92.174 93.4977 92.3233 93.6377 92.426C93.7217 92.51 93.9084 92.608 94.1977 92.72C94.8137 92.972 95.3271 93.098 95.7377 93.098C96.2324 93.098 96.6337 92.9347 96.9417 92.608C97.2311 92.3 97.3757 91.9033 97.3757 91.418C97.3757 91.11 97.1191 90.76 96.6057 90.368C96.1111 89.9947 95.6817 89.808 95.3177 89.808C95.2524 89.808 95.1591 89.8453 95.0377 89.92C94.8231 90.06 94.6877 90.13 94.6317 90.13C94.6411 90.0833 94.6457 90.0413 94.6457 90.004V89.906C94.6457 89.7753 94.6271 89.6727 94.5897 89.598C93.5444 89.066 92.8771 88.6133 92.5877 88.24C92.4197 88.016 92.3124 87.778 92.2657 87.526C92.2191 87.274 92.1957 86.9893 92.1957 86.672C92.1957 85.8413 92.3544 85.1553 92.6717 84.614C92.8957 84.2313 93.2084 83.9607 93.6097 83.802C94.0204 83.634 94.4031 83.55 94.7577 83.55C95.1217 83.55 95.4157 83.5733 95.6397 83.62C95.8637 83.6667 96.0784 83.732 96.2837 83.816C96.5731 83.9373 96.9977 84.1753 97.5577 84.53H97.6697L98.4117 83.648L98.5797 83.634C98.8131 83.634 98.9484 83.6993 98.9857 83.83C99.1257 85.006 99.1957 85.832 99.1957 86.308ZM101.465 93.168C101.353 93.168 101.297 93.0793 101.297 92.902C101.297 92.7247 101.386 92.636 101.563 92.636L102.361 92.706V88.002L101.913 88.058C101.727 88.058 101.633 87.9693 101.633 87.792C101.633 87.7267 101.731 87.6707 101.927 87.624C102.133 87.568 102.259 87.54 102.305 87.54C102.305 85.8413 102.133 84.7307 101.787 84.208C101.694 84.068 101.582 83.998 101.451 83.998L101.045 84.026C100.849 84.026 100.751 83.9373 100.751 83.76C100.751 83.6387 100.817 83.55 100.947 83.494C101.367 83.466 101.755 83.452 102.109 83.452H103.341C105.637 83.452 107.317 83.8253 108.381 84.572C108.96 84.9733 109.249 85.5473 109.249 86.294C109.249 86.854 109.091 87.3673 108.773 87.834C108.633 88.0393 108.433 88.2353 108.171 88.422C107.91 88.5993 107.611 88.7393 107.275 88.842C106.949 88.9353 106.627 89.0007 106.309 89.038C105.917 89.0847 105.423 89.108 104.825 89.108V92.468L104.993 92.636C105.049 92.6267 105.133 92.622 105.245 92.622H105.609C105.983 92.622 106.221 92.636 106.323 92.664C106.473 92.7107 106.617 92.818 106.757 92.986L106.575 93.168H101.465ZM105.651 88.464L106.211 88.45C106.706 88.422 107.047 88.1653 107.233 87.68C107.345 87.372 107.401 87.008 107.401 86.588C107.401 86.1587 107.383 85.8367 107.345 85.622C107.317 85.4073 107.257 85.2113 107.163 85.034C106.911 84.558 106.375 84.25 105.553 84.11C105.115 84.0353 104.746 83.998 104.447 83.998C104.447 84.0727 104.447 84.1473 104.447 84.222C104.447 85.566 104.527 86.6907 104.685 87.596C104.741 87.8947 104.793 88.1 104.839 88.212C104.895 88.324 104.975 88.394 105.077 88.422C105.18 88.45 105.371 88.464 105.651 88.464ZM115.041 93.07H110.729C110.645 93.07 110.579 93.0373 110.533 92.972C110.495 92.8973 110.477 92.8087 110.477 92.706C110.477 92.6033 110.533 92.51 110.645 92.426C110.757 92.4167 110.883 92.4073 111.023 92.398C111.172 92.3887 111.312 92.3793 111.443 92.37C111.741 92.3513 111.905 92.3187 111.933 92.272L113.375 88.436L113.389 88.338C113.389 87.974 113.011 87.764 112.255 87.708C112.087 87.6893 111.956 87.6847 111.863 87.694C111.489 87.694 111.163 87.8247 110.883 88.086C110.612 88.338 110.477 88.6647 110.477 89.066C110.477 89.3367 110.607 89.472 110.869 89.472C111.055 89.472 111.172 89.43 111.219 89.346C111.275 89.262 111.303 89.15 111.303 89.01V88.674C111.331 88.59 111.363 88.5387 111.401 88.52C111.438 88.5013 111.494 88.492 111.569 88.492C111.653 88.492 111.723 88.5153 111.779 88.562C111.835 88.6087 111.881 88.6647 111.919 88.73C111.993 88.87 112.026 89.0053 112.017 89.136C112.017 89.2667 111.984 89.388 111.919 89.5C111.863 89.612 111.788 89.7147 111.695 89.808C111.471 90.0133 111.261 90.116 111.065 90.116C110.701 90.116 110.416 90.0273 110.211 89.85C110.015 89.6633 109.917 89.416 109.917 89.108C109.917 88.7907 109.963 88.5107 110.057 88.268C110.15 88.0253 110.281 87.8153 110.449 87.638C110.813 87.2553 111.251 87.064 111.765 87.064C112.119 87.064 112.437 87.0967 112.717 87.162C112.997 87.218 113.295 87.3533 113.613 87.568L113.641 87.582C113.65 87.582 113.673 87.568 113.711 87.54C113.748 87.512 113.767 87.4887 113.767 87.47L114.901 84.516V84.474C114.901 84.4553 114.887 84.432 114.859 84.404C114.84 84.3667 114.821 84.348 114.803 84.348H112.899C112.833 84.348 112.801 84.3107 112.801 84.236C112.801 84.152 112.819 84.0447 112.857 83.914C112.903 83.7833 112.969 83.718 113.053 83.718L119.143 83.592C119.217 83.592 119.273 83.634 119.311 83.718C119.348 83.7927 119.367 83.9047 119.367 84.054C119.367 84.2033 119.32 84.278 119.227 84.278H117.953L118.975 87.316C118.993 87.4187 119.017 87.4887 119.045 87.526C119.073 87.5633 119.18 87.582 119.367 87.582C119.553 87.582 119.787 87.54 120.067 87.456C120.356 87.3627 120.659 87.316 120.977 87.316C121.135 87.316 121.215 87.4047 121.215 87.582C121.215 87.694 121.173 87.7827 121.089 87.848C121.005 87.904 120.911 87.9367 120.809 87.946L119.535 88.114C119.423 88.114 119.367 88.1653 119.367 88.268L120.795 92.398L121.551 92.594C121.663 92.6127 121.719 92.678 121.719 92.79C121.719 92.902 121.691 92.9907 121.635 93.056C121.579 93.0467 121.523 93.042 121.467 93.042H121.299L118.653 93.112C118.55 93.112 118.485 93.0933 118.457 93.056C118.429 93.0187 118.415 92.9347 118.415 92.804C118.415 92.6733 118.48 92.5847 118.611 92.538C118.741 92.482 118.858 92.44 118.961 92.412C119.073 92.384 119.171 92.3747 119.255 92.384C119.348 92.384 119.446 92.3887 119.549 92.398C119.754 92.4167 119.917 92.426 120.039 92.426V92.258L118.807 88.436H118.653C118.615 88.436 118.41 88.604 118.037 88.94L117.351 89.556C117.257 89.6493 117.192 89.738 117.155 89.822C117.127 89.906 117.043 89.948 116.903 89.948C116.763 89.948 116.651 89.906 116.567 89.822C116.492 89.738 116.417 89.6447 116.343 89.542C116.277 89.4393 116.203 89.346 116.119 89.262C116.044 89.178 115.969 89.136 115.895 89.136C115.829 89.136 115.797 89.1407 115.797 89.15C115.797 89.15 115.792 89.15 115.783 89.15H115.769L114.663 92.202C114.644 92.2207 114.635 92.2673 114.635 92.342C114.635 92.4073 114.658 92.4493 114.705 92.468L114.887 92.524C114.952 92.552 115.008 92.5893 115.055 92.636C115.111 92.6827 115.139 92.7667 115.139 92.888C115.139 93.0093 115.106 93.07 115.041 93.07ZM116.091 88.268L116.077 88.352C116.077 88.4267 116.086 88.4733 116.105 88.492C116.133 88.5107 116.179 88.5387 116.245 88.576L116.441 88.73L116.693 88.898C116.767 88.954 116.861 89.0147 116.973 89.08L118.415 87.89C118.527 87.834 118.583 87.8013 118.583 87.792C118.583 87.7733 118.578 87.7547 118.569 87.736V87.708L117.505 84.684L116.091 88.268Z" fill="#F2A68D"/>
<g clip-path="url(#clip0_37_2)">
<path d="M8.12933 33.5091C10.3557 33.3707 12.5808 33.2028 14.8086 33.1021C20.8735 32.8268 26.7359 31.8907 31.984 28.5196C35.1677 26.4742 38.5822 26.6112 42.0292 27.8871C43.887 28.5747 45.7084 29.4477 47.6283 29.8694C52.7616 30.9976 57.6155 29.7915 62.2803 27.6547C64.9968 26.411 67.766 25.2815 70.8119 25.7127C75.3269 26.3506 78.9007 28.6445 81.6915 32.1472C81.62 32.2828 81.5484 32.4185 81.4755 32.5541C79.9539 31.8141 78.2797 31.2782 76.9376 30.2965C72.4321 27.0006 67.9833 26.998 63.0769 29.5457C58.9724 31.6771 54.4318 32.6414 49.7427 32.1673C48.14 32.0048 46.5684 31.4676 45.0076 31.0177C44.0801 30.7504 43.1728 30.3717 42.3033 29.9486C38.4499 28.0805 34.8382 28.3853 31.3332 30.8807C29.015 32.5313 26.2755 33.27 23.4915 33.4392C18.3865 33.7495 13.2667 33.8099 8.15229 33.9737C8.14554 33.8193 8.13743 33.6648 8.12933 33.5091Z" fill="#F2A68D"/>
<path d="M60.4265 27.2303C58.3742 28.4592 56.5731 28.392 54.6532 27.5338C50.0275 25.4642 48.0212 21.5761 47.0558 16.956C46.752 15.5028 46.6454 14.0066 46.482 12.5266C46.3834 11.6375 46.9114 11.2373 47.7336 11.1849C49.1634 11.0936 50.2463 11.7718 50.9024 12.9497C51.5168 14.0523 52.0933 15.2329 52.3755 16.4497C53.4677 21.1651 55.6186 25.0693 60.4265 27.2303Z" fill="#F2A68D"/>
<path d="M50.2557 29.308C48.6922 28.9413 47.1098 28.6365 45.572 28.1866C44.4379 27.8548 43.3915 27.1981 42.2493 26.9227C40.3334 26.4607 39.3126 25.1419 38.4755 23.5463C36.962 20.6601 36.2572 17.5604 36.0426 14.3424C35.9305 12.6529 36.8486 11.9142 38.4188 12.5911C39.2802 12.9631 40.1781 13.7125 40.6034 14.5278C41.3851 16.0266 41.9765 17.6638 42.387 19.3077C43.3969 23.357 45.788 26.2579 49.4065 28.2456C49.7426 28.4296 50.0586 28.6499 50.384 28.8527C50.3394 29.0045 50.2976 29.1562 50.2557 29.308Z" fill="#F2A68D"/>
<path d="M46.6346 5.48635C46.6224 7.83131 45.2196 9.96273 43.3037 10.5416C40.5683 11.3702 38.03 9.65114 37.3293 6.49632C36.5232 2.86472 39.5044 -0.574825 42.8919 0.0792394C45.0751 0.500956 46.6481 2.77339 46.6346 5.48635Z" fill="#F2A68D"/>
<path d="M97.9151 31.5066C97.7503 30.8418 97.6072 30.1702 97.4169 29.5135C96.7526 27.2155 95.3349 25.4696 93.3313 24.199C91.2102 22.8533 88.8676 23.2132 87.3365 25.2104C86.5143 26.2835 85.9526 27.5499 85.1992 28.6794C84.6281 29.535 83.9409 30.3139 83.305 31.1278C83.1281 31.0875 82.9526 31.0472 82.7757 31.007C82.75 30.4362 82.5151 29.766 82.7352 29.3134C83.5939 27.5405 84.4675 25.7516 85.5732 24.1279C87.1624 21.795 89.6251 21.1087 92.3537 21.9682C96.3381 23.2213 98.8224 27.3257 97.9151 31.5066Z" fill="#F2A68D"/>
</g>
<rect x="8" y="88" width="70" height="1" fill="#F2A68D"/>
<rect x="134" y="88" width="70" height="1" fill="#F2A68D"/>
<defs>
<clipPath id="clip0_37_2">
<rect width="116.364" height="40" fill="white"/>
</clipPath>
</defs>
</svg>
